<svg width="113" height="42" viewBox="0 0 113 42" fill="none" xmlns="http://www.w3.org/2000/svg">
<g clip-path="url(#clip0_66_353)">
<path d="M0 27.7946H4.88818C4.88818 29.9466 6.67943 30.9852 8.66492 30.9852C10.4885 30.9852 12.269 30.0323 12.269 28.3728C12.269 26.649 10.2296 26.1779 7.79087 25.6104C4.41339 24.786 0.31293 23.8117 0.31293 19.0151C0.31293 14.7538 3.4746 12.3448 8.43831 12.3448C13.5855 12.3448 16.5205 15.075 16.5205 19.5076H11.7295C11.7295 17.5911 10.1324 16.6917 8.31961 16.6917C6.74417 16.6917 5.15795 17.3556 5.15795 18.8117C5.15795 20.3749 7.10027 20.8459 9.47422 21.4134C12.8949 22.2699 17.1788 23.3299 17.1788 28.3085C17.1788 33.1158 13.3265 35.4392 8.6865 35.4392C3.53934 35.4392 0 32.5698 0 27.7946Z" fill="#231331"/>
<path d="M27.8401 35.482C22.639 35.482 18.6572 31.5098 18.6572 26.3706C18.6572 21.2314 22.6066 17.3556 27.8617 17.3556C32.3398 17.3556 35.8144 20.1714 36.6561 24.3899H32.0161C31.2607 22.6982 29.7069 21.7132 27.8401 21.7132C25.3043 21.7132 23.3943 23.7368 23.3943 26.392C23.3943 29.0473 25.3367 31.1244 27.8401 31.1244C29.7285 31.1244 31.2176 30.0858 32.0161 28.2443H36.7208C35.9007 32.5591 32.3614 35.482 27.8401 35.482Z" fill="#231331"/>
<path d="M37.7026 26.4241C37.7026 21.2207 41.6952 17.3663 47.0474 17.3663C52.378 17.3663 56.3921 21.2314 56.3921 26.4241C56.3921 31.5955 52.378 35.482 47.0474 35.482C41.6952 35.482 37.7026 31.5955 37.7026 26.4241ZM51.655 26.4241C51.655 23.6511 49.745 21.7239 47.0474 21.7239C44.3497 21.7239 42.4397 23.6511 42.4397 26.4241C42.4397 29.1972 44.3497 31.1244 47.0474 31.1244C49.745 31.1244 51.655 29.1972 51.655 26.4241Z" fill="#231331"/>
<path d="M57.6548 26.4241C57.6548 21.2207 61.6473 17.3663 66.9995 17.3663C72.3301 17.3663 76.3442 21.2314 76.3442 26.4241C76.3442 31.5955 72.3301 35.482 66.9995 35.482C61.6366 35.482 57.6548 31.5955 57.6548 26.4241ZM71.6071 26.4241C71.6071 23.6511 69.6972 21.7239 66.9995 21.7239C64.3018 21.7239 62.3919 23.6511 62.3919 26.4241C62.3919 29.1972 64.3018 31.1244 66.9995 31.1244C69.6864 31.1244 71.6071 29.1972 71.6071 26.4241Z" fill="#231331"/>
<path d="M88.1601 17.3663C93.372 17.3663 97.2134 21.2314 97.2134 26.4241C97.2134 31.6169 93.3612 35.5141 88.1601 35.5141C86.3688 35.5141 84.7394 34.9895 83.4014 34.0687V41.1887H78.729V17.8481H81.8151L82.6136 19.4112C84.092 18.1157 86.0019 17.3663 88.1601 17.3663ZM92.4871 26.4241C92.4871 23.726 90.5016 21.7239 87.7824 21.7239C85.0631 21.7239 83.0669 23.7368 83.0669 26.4241C83.0669 29.1115 85.0631 31.1244 87.7824 31.1244C90.4908 31.1244 92.4871 29.1222 92.4871 26.4241Z" fill="#231331"/>
<path d="M105.748 35.482C101.411 35.482 98.5079 33.0195 98.4863 29.3471H103.04C103.062 30.8781 104.238 31.6383 105.921 31.6383C107.216 31.6383 108.381 31.0601 108.381 29.9038C108.381 28.7261 106.881 28.3728 105.058 28.073C102.295 27.6126 98.7777 26.8845 98.7777 22.8374C98.7777 19.5933 101.562 17.3556 105.738 17.3556C109.914 17.3556 112.654 19.6575 112.665 23.0836H108.23C108.209 21.7239 107.248 21.0494 105.619 21.0494C104.162 21.0494 103.31 21.7132 103.31 22.6875C103.31 23.8331 104.788 24.1008 106.579 24.422C109.396 24.9252 113 25.5141 113 29.7004C113 33.2122 110.108 35.482 105.748 35.482Z" fill="#231331"/>
<path d="M37.7781 27.3984C37.4868 25.1179 38.0587 23.0836 39.2456 21.2849C39.5586 20.8031 40.5837 19.3791 42.2994 18.544C45.0834 17.1843 49.0328 17.6554 50.3385 21.9809C51.1909 26.1565 47.3494 27.7732 44.8892 26.8203C43.8748 26.4241 43.1303 25.5141 42.8821 25.3535C40.7887 23.9188 38.4903 24.9894 37.7781 27.3984Z" fill="#231331"/>
<path d="M57.7195 27.3984C57.4282 25.1179 58.0001 23.0836 59.187 21.2849C59.5 20.8031 60.5251 19.3791 62.2408 18.544C65.0248 17.1843 68.9742 17.6554 70.2799 21.9809C71.1323 26.1565 67.2908 27.7732 64.8306 26.8203C63.8162 26.4241 63.0717 25.5141 62.8235 25.3535C60.7301 23.9188 58.4425 24.9894 57.7195 27.3984Z" fill="#231331"/>
<path d="M27.7753 13.5547C24.5921 13.5547 22.1426 11.1136 22.1426 7.96578C22.1426 4.81801 24.5705 2.44112 27.7861 2.44112C30.5269 2.44112 32.6635 4.1649 33.1814 6.75592H30.3327C29.8687 5.71737 28.9191 5.1178 27.7753 5.1178C26.2215 5.1178 25.0561 6.35978 25.0561 7.98719C25.0561 9.61461 26.243 10.8887 27.7753 10.8887C28.9299 10.8887 29.8471 10.2463 30.3327 9.1221H33.2138C32.7174 11.7667 30.5485 13.5547 27.7753 13.5547Z" fill="#231331"/>
<path d="M34.3794 8.82232V2.74091H37.2497V8.49041C37.2497 9.98935 38.0482 10.878 39.3755 10.878C40.7027 10.878 41.4797 9.96794 41.4797 8.49041V2.74091H44.35V8.81161C44.35 11.6489 42.3753 13.544 39.3755 13.544C36.3757 13.5547 34.3794 11.6596 34.3794 8.82232Z" fill="#231331"/>
<path d="M50.1338 13.5547C47.4685 13.5547 45.6988 12.045 45.6772 9.79663H48.472C48.4828 10.7281 49.2058 11.1992 50.2417 11.1992C51.0402 11.1992 51.7524 10.8459 51.7524 10.1392C51.7524 9.42189 50.8352 9.20776 49.713 9.01504C48.0188 8.73666 45.8715 8.28698 45.8715 5.80303C45.8715 3.81158 47.5764 2.44112 50.1338 2.44112C52.6912 2.44112 54.3745 3.85441 54.3853 5.95292H51.6661C51.6553 5.1178 51.0618 4.70024 50.0691 4.70024C49.1734 4.70024 48.6555 5.10709 48.6555 5.70667C48.6555 6.4026 49.5619 6.57391 50.6625 6.76663C52.3891 7.07713 54.6011 7.44115 54.6011 10.0001C54.5688 12.1628 52.8099 13.5547 50.1338 13.5547Z" fill="#231331"/>
<path d="M62.5645 10.7281V13.2549H60.5251C58.1943 13.2549 56.7591 11.8309 56.7591 9.49684V5.03215H54.8384V4.42187L59.0359 0H59.5863V2.74092H62.5106V5.03215H59.6294V9.13282C59.6294 10.15 60.2229 10.7281 61.2588 10.7281H62.5645Z" fill="#231331"/>
<path d="M63.2334 7.9979C63.2334 4.8073 65.6829 2.44112 68.9632 2.44112C72.2328 2.44112 74.6931 4.8073 74.6931 7.9979C74.6931 11.1671 72.2328 13.5547 68.9632 13.5547C65.6829 13.5547 63.2334 11.1778 63.2334 7.9979ZM71.7904 7.9979C71.7904 6.29554 70.6142 5.1178 68.9632 5.1178C67.3123 5.1178 66.1361 6.29554 66.1361 7.9979C66.1361 9.70027 67.3123 10.878 68.9632 10.878C70.6142 10.878 71.7904 9.70027 71.7904 7.9979Z" fill="#231331"/>
<path d="M91.9475 6.67027V13.2656H89.0771V7.13066C89.0771 5.72808 88.5268 4.98932 87.4801 4.98932C86.196 4.98932 85.4407 5.9208 85.4407 7.56963V13.2549H82.6567V7.13066C82.6567 5.72808 82.1171 4.98932 81.092 4.98932C79.7972 4.98932 79.0202 5.9208 79.0202 7.56963V13.2549H76.1499V2.74091H78.157L78.6965 4.04713C79.4518 3.10494 80.6064 2.49466 81.8582 2.49466C83.207 2.49466 84.3184 3.11565 84.9335 4.17561C85.6565 3.15847 86.865 2.49466 88.2139 2.49466C90.4152 2.49466 91.9475 4.19702 91.9475 6.67027Z" fill="#231331"/>
<path d="M104.271 7.96578C104.271 8.24416 104.249 8.52253 104.217 8.8009H96.1991C96.4473 10.2356 97.3968 11.0279 98.7888 11.0279C99.7816 11.0279 100.602 10.5568 101.033 9.80733H104.044C103.278 12.0986 101.249 13.5654 98.7888 13.5654C95.6595 13.5654 93.2964 11.1564 93.2964 8.00861C93.2964 4.83943 95.6488 2.45183 98.7888 2.45183C102.037 2.44113 104.271 4.93579 104.271 7.96578ZM96.2746 6.85229H101.411C101.001 5.56748 100.073 4.87155 98.7888 4.87155C97.5048 4.87155 96.5983 5.61031 96.2746 6.85229Z" fill="#231331"/>
<path d="M112.083 2.68738V5.37476H110.842C109.223 5.37476 108.587 6.0814 108.587 7.80518V13.2656H105.716V2.74091H107.551L108.058 4.02572C108.813 3.09424 109.774 2.67667 111.133 2.67667H112.083V2.68738Z" fill="#231331"/>
</g>
<defs>
<clipPath id="clip0_66_353">
<rect width="113" height="41.178" fill="white"/>
</clipPath>
</defs>
</svg>
